<svg width="16" height="16" viewBox="0 0 16 16" fill="none" xmlns="http://www.w3.org/2000/svg">
<path d="M2 11.8333C2 12.408 2.22827 12.9591 2.6346 13.3654C3.04093 13.7717 3.59203 14 4.16667 14H7.44333L7.68067 13.0513C7.78867 12.6193 8.012 12.2247 8.32733 11.91L12.262 7.97467C12.4878 7.74851 12.7605 7.57459 13.0607 7.46517C13.361 7.35575 13.6816 7.31348 14 7.34133V4.16667C14 3.59203 13.7717 3.04093 13.3654 2.6346C12.9591 2.22827 12.408 2 11.8333 2H7.33333V5.16667C7.33333 5.4512 7.27729 5.73294 7.16841 5.99581C7.05952 6.25869 6.89992 6.49754 6.69873 6.69873C6.49754 6.89992 6.25869 7.05952 5.99581 7.16841C5.73294 7.27729 5.4512 7.33333 5.16667 7.33333H2V11.8333ZM6.33333 2.29333L2.29333 6.33333H5.16667C5.47609 6.33333 5.77283 6.21042 5.99162 5.99162C6.21042 5.77283 6.33333 5.47609 6.33333 5.16667V2.29333ZM12.7333 8.44667L8.798 12.3813C8.5691 12.611 8.40648 12.8982 8.32733 13.2127L8.022 14.4333C7.99163 14.5548 7.99325 14.682 8.02669 14.8027C8.06013 14.9233 8.12425 15.0332 8.2128 15.1217C8.30136 15.2102 8.41133 15.2742 8.53199 15.3076C8.65266 15.3409 8.77991 15.3425 8.90133 15.312L10.1213 15.0073C10.4361 14.9281 10.7236 14.7653 10.9533 14.536L14.888 10.6013C15.1627 10.3134 15.3139 9.92938 15.3092 9.53141C15.3046 9.13345 15.1444 8.75311 14.863 8.47168C14.5816 8.19026 14.2012 8.0301 13.8033 8.02542C13.4053 8.02075 13.0213 8.17193 12.7333 8.44667Z" fill="#323232"/>
</svg>
