<svg width="115" height="115" viewBox="0 0 115 115" fill="none" xmlns="http://www.w3.org/2000/svg">
<path fill-rule="evenodd" clip-rule="evenodd" d="M73.8771 27.0418C73.2163 25.9859 72.2427 25.1623 71.0919 24.6856C69.941 24.2089 68.6702 24.103 67.4563 24.3824L58.8409 26.3613C57.958 26.5643 57.0405 26.5643 56.1576 26.3613L47.5421 24.3824C46.3282 24.103 45.0574 24.2089 43.9066 24.6856C42.7557 25.1623 41.7821 25.9859 41.1213 27.0418L36.4255 34.5359C35.9463 35.3026 35.2994 35.9495 34.5328 36.4334L27.0386 41.1293C25.9845 41.7895 25.1621 42.7615 24.6856 43.9104C24.209 45.0593 24.102 46.328 24.3792 47.5405L26.3582 56.1655C26.5604 57.0469 26.5604 57.9627 26.3582 58.8441L24.3792 67.4643C24.1009 68.6775 24.2074 69.9472 24.684 71.0971C25.1606 72.2469 25.9836 73.2198 27.0386 73.8803L34.5328 78.5761C35.2994 79.0553 35.9463 79.7022 36.4303 80.4688L41.1261 87.963C42.4774 90.1241 45.0553 91.1926 47.5421 90.6224L56.1576 88.6434C57.0405 88.4405 57.958 88.4405 58.8409 88.6434L67.4611 90.6224C68.6743 90.9007 69.9441 90.7942 71.0939 90.3176C72.2438 89.841 73.2166 89.018 73.8771 87.963L78.573 80.4688C79.0521 79.7022 79.699 79.0553 80.4657 78.5761L87.9646 73.8803C89.0197 73.2188 89.8423 72.2449 90.3181 71.0941C90.7939 69.9433 90.8991 68.6729 90.6192 67.4595L88.6451 58.8441C88.4421 57.9611 88.4421 57.0437 88.6451 56.1607L90.624 47.5405C90.9028 46.3278 90.797 45.0584 90.3213 43.9086C89.8456 42.7588 89.0236 41.7857 87.9694 41.1245L80.4705 36.4286C79.7049 35.9486 79.0578 35.3015 78.5778 34.5359L73.8771 27.0418ZM71.4669 46.817C71.7633 46.272 71.8367 45.6333 71.6718 45.0353C71.5068 44.4373 71.1163 43.9266 70.5825 43.6106C70.0486 43.2946 69.413 43.198 68.8094 43.3412C68.2058 43.4843 67.6813 43.856 67.3461 44.378L54.8159 65.5859L47.2499 58.3409C47.0254 58.1105 46.7568 57.9275 46.4601 57.8031C46.1635 57.6787 45.8448 57.6153 45.5231 57.6167C45.2013 57.6181 44.8832 57.6843 44.5876 57.8113C44.2921 57.9383 44.0251 58.1235 43.8026 58.356C43.5802 58.5884 43.4068 58.8632 43.2929 59.1641C43.179 59.4649 43.1268 59.7857 43.1395 60.1071C43.1522 60.4286 43.2296 60.7442 43.3669 61.0351C43.5042 61.3261 43.6987 61.5864 43.9388 61.8005L53.6851 71.1395C53.9459 71.3889 54.2597 71.5762 54.6031 71.6873C54.9465 71.7984 55.3105 71.8305 55.6681 71.7812C56.0256 71.7319 56.3674 71.6025 56.6678 71.4026C56.9683 71.2027 57.2198 70.9375 57.4034 70.6268L71.4669 46.817Z" fill="#1B3C28"/>
</svg>
