<svg width="40" height="16" viewBox="0 0 40 16" fill="none" xmlns="http://www.w3.org/2000/svg">
<path d="M5.71523 15.3526C2.42754 15.3526 0.350104 13.7802 0.188102 11.3407L0.178572 11.1882H2.95167L2.9612 11.2835C3.06602 12.3127 4.18098 13.0083 5.79147 13.0083C7.32572 13.0083 8.3835 12.2746 8.3835 11.2168V11.2072C8.3835 10.3019 7.7069 9.79688 6.00112 9.44428L4.55263 9.14887C1.69377 8.56757 0.464458 7.23343 0.464458 5.14646V5.13693C0.464458 2.58302 2.65625 0.896291 5.7057 0.896291C8.91715 0.896291 10.804 2.59255 10.9851 4.88917L10.9946 5.01305H8.2882L8.26915 4.8987C8.10714 3.91715 7.15419 3.23103 5.7057 3.23103C4.2858 3.24056 3.34238 3.88856 3.34238 4.91775V4.92728C3.34238 5.82306 4.00944 6.35671 5.62946 6.69025L7.08748 6.98566C9.99399 7.58602 11.2614 8.74863 11.2614 10.8928V10.9023C11.2614 13.6277 9.14586 15.3526 5.71523 15.3526ZM20 15.3526C15.9118 15.3526 13.377 12.57 13.377 8.12921V8.11015C13.377 3.65986 15.9499 0.896291 20 0.896291C24.0501 0.896291 26.6135 3.66939 26.6135 8.11015V8.12921C26.6135 12.57 24.0596 15.3526 20 15.3526ZM20 12.913C22.2394 12.913 23.6784 11.0357 23.6784 8.12921V8.11015C23.6784 5.19411 22.2299 3.33585 20 3.33585C17.7606 3.33585 16.3121 5.19411 16.3121 8.11015V8.12921C16.3121 11.0357 17.732 12.913 20 12.913ZM34.2657 15.3526C30.978 15.3526 28.9006 13.7802 28.7386 11.3407L28.7291 11.1882H31.5021L31.5117 11.2835C31.6165 12.3127 32.7315 13.0083 34.3419 13.0083C35.8762 13.0083 36.934 12.2746 36.934 11.2168V11.2072C36.934 10.3019 36.2574 9.79688 34.5516 9.44428L33.1031 9.14887C30.2442 8.56757 29.0149 7.23343 29.0149 5.14646V5.13693C29.0149 2.58302 31.2067 0.896291 34.2562 0.896291C37.4676 0.896291 39.3545 2.59255 39.5355 4.88917L39.5451 5.01305H36.8387L36.8196 4.8987C36.6576 3.91715 35.7047 3.23103 34.2562 3.23103C32.8363 3.24056 31.8929 3.88856 31.8929 4.91775V4.92728C31.8929 5.82306 32.5599 6.35671 34.1799 6.69025L35.638 6.98566C38.5445 7.58602 39.8119 8.74863 39.8119 10.8928V10.9023C39.8119 13.6277 37.6963 15.3526 34.2657 15.3526Z" fill="#D23C3C"/>
</svg>
