<svg width="32" height="32" viewBox="0 0 32 32" fill="none" xmlns="http://www.w3.org/2000/svg">
<circle cx="16" cy="16" r="13" fill="#1B3C28"/>
<path d="M11.6069 17.6623L11.0148 20.2178C10.9944 20.3112 10.9951 20.408 11.0169 20.5012C11.0386 20.5943 11.0809 20.6813 11.1407 20.756C11.2004 20.8307 11.2761 20.8911 11.3621 20.9328C11.4482 20.9744 11.5425 20.9964 11.6381 20.9969C11.6827 21.0018 11.7276 21.0018 11.7721 20.9969L14.3432 20.4048L19.2797 15.487L16.5247 12.7383L11.6069 17.6623Z" fill="#F9F4EC"/>
<path d="M20.832 13.0243L18.9933 11.1856C18.8724 11.0653 18.7088 10.9978 18.5382 10.9978C18.3677 10.9978 18.2041 11.0653 18.0832 11.1856L17.061 12.2078L19.8129 14.9597L20.8351 13.9374C20.8949 13.8773 20.9423 13.806 20.9745 13.7275C21.0067 13.6491 21.0232 13.5651 21.0229 13.4802C21.0226 13.3954 21.0056 13.3115 20.9728 13.2333C20.9401 13.155 20.8922 13.084 20.832 13.0243Z" fill="#F9F4EC"/>
</svg>
