<svg width="36" height="36" viewBox="0 0 36 36" fill="none" xmlns="http://www.w3.org/2000/svg">
<path d="M32.9921 17.255C32.9921 18.2593 32.2107 19.046 31.325 19.046H29.6579L29.6944 27.984C29.6944 28.1346 29.684 28.2852 29.6684 28.4359V29.3397C29.6684 30.5727 28.7358 31.5714 27.5845 31.5714H26.7509C26.6936 31.5714 26.6363 31.5714 26.579 31.5659C26.5061 31.5714 26.4331 31.5714 26.3602 31.5714L24.6671 31.5659H23.4167C22.2654 31.5659 21.3329 30.5672 21.3329 29.3341V24.4244C21.3329 23.4369 20.5879 22.639 19.6658 22.639H16.3316C15.4095 22.639 14.6645 23.4369 14.6645 24.4244V29.3341C14.6645 30.5672 13.7319 31.5659 12.5806 31.5659H9.66839C9.59025 31.5659 9.5121 31.5603 9.43396 31.5547C9.37144 31.5603 9.30892 31.5659 9.24641 31.5659H8.41286C7.26152 31.5659 6.32899 30.5672 6.32899 29.3341V23.0854C6.32899 23.0352 6.32899 22.9794 6.3342 22.9291V19.0404H4.6671C3.72936 19.0404 3 18.2593 3 17.2494C3 16.7473 3.15629 16.301 3.52097 15.9104L16.8734 3.44634C17.2381 3.05579 17.6548 3 18.0195 3C18.3842 3 18.801 3.11159 19.1135 3.39055L32.4191 15.916C32.8358 16.3066 33.0442 16.7529 32.9921 17.255Z" fill="#1B3C28"/>
</svg>
