<svg width="25" height="30" viewBox="0 0 25 30" fill="none" xmlns="http://www.w3.org/2000/svg">
<path d="M9.27844 6.70105C4.16259 6.70105 9.44589e-05 10.8635 9.44589e-05 15.9736C-0.0335396 23.4485 8.92587 29.6464 9.27844 29.8969C9.27844 29.8969 18.5904 23.4485 18.5568 15.9794C18.5568 10.8635 14.3943 6.70105 9.27844 6.70105ZM9.27844 20.6186C6.7153 20.6186 4.63927 18.5425 4.63927 15.9794C4.63927 13.4163 6.7153 11.3402 9.27844 11.3402C11.8416 11.3402 13.9176 13.4163 13.9176 15.9794C13.9176 18.5425 11.8416 20.6186 9.27844 20.6186Z" fill="#F9F4EC"/>
<path d="M13.4019 5.79897C13.4019 4.26099 14.0128 2.786 15.1003 1.69848C16.1879 0.610961 17.6628 0 19.2008 0C20.7388 0 22.2138 0.610961 23.3013 1.69848C24.3888 2.786 24.9998 4.26099 24.9998 5.79897C24.9998 7.33695 24.3888 8.81194 23.3013 9.89946C22.2138 10.987 20.7388 11.5979 19.2008 11.5979C17.6628 11.5979 16.1879 10.987 15.1003 9.89946C14.0128 8.81194 13.4019 7.33695 13.4019 5.79897ZM17.0262 4.71166H18.476C18.476 4.61554 18.5141 4.52335 18.5821 4.45538C18.6501 4.38741 18.7423 4.34923 18.8384 4.34923H19.3067C19.3691 4.34925 19.4296 4.37037 19.4785 4.40914C19.5275 4.44791 19.5618 4.50207 19.5761 4.56283C19.5904 4.62359 19.5837 4.68739 19.5571 4.74388C19.5306 4.80036 19.4858 4.84623 19.4299 4.87403L18.476 5.351V6.52384H19.9257V6.24694L20.0786 6.1701C20.4263 5.99605 20.7051 5.70975 20.8698 5.35756C21.0345 5.00536 21.0755 4.60788 20.9862 4.22947C20.8968 3.85107 20.6824 3.51388 20.3776 3.27251C20.0728 3.03113 19.6955 2.8997 19.3067 2.89948H18.8384C18.3578 2.89948 17.8968 3.09041 17.557 3.43026C17.2171 3.77011 17.0262 4.23104 17.0262 4.71166ZM19.2008 8.69845C19.3931 8.69845 19.5774 8.62208 19.7134 8.48614C19.8493 8.3502 19.9257 8.16583 19.9257 7.97358C19.9257 7.78133 19.8493 7.59696 19.7134 7.46102C19.5774 7.32508 19.3931 7.24871 19.2008 7.24871C19.0086 7.24871 18.8242 7.32508 18.6883 7.46102C18.5523 7.59696 18.476 7.78133 18.476 7.97358C18.476 8.16583 18.5523 8.3502 18.6883 8.48614C18.8242 8.62208 19.0086 8.69845 19.2008 8.69845Z" fill="#F9F4EC"/>
</svg>
