<svg width="24" height="24" viewBox="0 0 24 24" fill="none" xmlns="http://www.w3.org/2000/svg">
<rect width="24" height="24" rx="2" fill="#1B3C28"/>
<path d="M11.1123 18.2646C10.6885 18.2646 10.3353 18.096 10.0527 17.7588L6.52539 13.4863C6.40234 13.3451 6.31576 13.2083 6.26562 13.0762C6.21549 12.944 6.19043 12.8073 6.19043 12.666C6.19043 12.3424 6.29753 12.0758 6.51172 11.8662C6.73047 11.652 7.00391 11.5449 7.33203 11.5449C7.69661 11.5449 7.99967 11.693 8.24121 11.9893L11.085 15.5098L16.6699 6.68457C16.8112 6.47038 16.957 6.31999 17.1074 6.2334C17.2624 6.14225 17.4515 6.09668 17.6748 6.09668C18.0029 6.09668 18.2741 6.2015 18.4883 6.41113C18.7025 6.62077 18.8096 6.88509 18.8096 7.2041C18.8096 7.32259 18.7891 7.44564 18.748 7.57324C18.707 7.70085 18.6432 7.83301 18.5566 7.96973L12.1924 17.7109C11.9417 18.0801 11.5817 18.2646 11.1123 18.2646Z" fill="white"/>
</svg>
