<svg width="16" height="16" viewBox="0 0 16 16" fill="none" xmlns="http://www.w3.org/2000/svg">
<path fill-rule="evenodd" clip-rule="evenodd" d="M4.09483 4.09471C5.93616 2.25404 6.85616 1.33337 8.00016 1.33337C9.14416 1.33337 10.0642 2.25337 11.9055 4.09471C13.7468 5.93604 14.6668 6.85604 14.6668 8.00004C14.6668 9.14404 13.7468 10.064 11.9055 11.9054C10.0642 13.7467 9.14416 14.6667 8.00016 14.6667C6.85616 14.6667 5.93616 13.7467 4.09483 11.9054C2.2535 10.064 1.3335 9.14404 1.3335 8.00004C1.3335 6.85604 2.2535 5.93604 4.09483 4.09471ZM9.23083 5.63471C9.1829 5.58979 9.12659 5.55476 9.06512 5.53161C9.00365 5.50846 8.93822 5.49765 8.87257 5.49978C8.80691 5.50192 8.74233 5.51696 8.68249 5.54406C8.62265 5.57116 8.56874 5.60977 8.52383 5.65771C8.47892 5.70564 8.44389 5.76195 8.42074 5.82342C8.39758 5.88489 8.38677 5.95032 8.3889 6.01597C8.39104 6.08162 8.40609 6.14621 8.43318 6.20605C8.46028 6.26588 8.4989 6.3198 8.54683 6.36471L9.40216 7.16671H7.1115C6.7415 7.16671 6.19283 7.26671 5.72016 7.58537C5.2215 7.92204 4.8335 8.49004 4.8335 9.33337C4.8335 9.46598 4.88617 9.59316 4.97994 9.68693C5.07371 9.78069 5.20089 9.83337 5.3335 9.83337C5.4661 9.83337 5.59328 9.78069 5.68705 9.68693C5.78082 9.59316 5.8335 9.46598 5.8335 9.33337C5.8335 8.84337 6.03816 8.57804 6.28016 8.41471C6.52871 8.25609 6.81667 8.17019 7.1115 8.16671H9.40216L8.54683 8.96871C8.45237 9.05995 8.3976 9.18469 8.39435 9.31599C8.39111 9.44728 8.43965 9.57458 8.52949 9.67037C8.61934 9.76617 8.74326 9.82277 8.87449 9.82795C9.00572 9.83312 9.13372 9.78646 9.23083 9.69804L11.0088 8.03137C11.0587 7.98461 11.0984 7.92812 11.1256 7.8654C11.1527 7.80268 11.1667 7.73506 11.1667 7.66671C11.1667 7.59836 11.1527 7.53073 11.1256 7.46801C11.0984 7.40529 11.0587 7.3488 11.0088 7.30204L9.23083 5.63471Z" fill="#1B3C28"/>
</svg>
