<svg width="84" height="84" viewBox="0 0 84 84" fill="none" xmlns="http://www.w3.org/2000/svg">
<path d="M73.5 9.79573V32.1957C73.5 33.2457 72.45 34.2957 71.4 33.9457C71.4 33.9457 57.75 24.8457 42 24.8457V33.2457H42.7C44.45 33.2457 46.2 33.9457 46.9 35.3457L51.45 41.6457C52.15 42.3457 52.5 43.3957 52.5 44.0957V72.0957C52.5 74.5457 50.05 76.9957 47.25 76.9957H29.75C26.95 76.9957 24.5 74.8957 24.5 72.0957V44.0957C24.5 43.0457 24.85 42.3457 25.55 41.6457L30.1 35.3457C31.15 33.9457 32.55 33.2457 34.3 33.2457H35V27.9957C33.6 29.7457 31.5 30.7957 29.4 30.7957C24.85 30.7957 21 26.2457 21 20.9957C21 15.7457 24.85 11.1957 29.4 11.1957C31.5 11.5457 33.6 12.5957 35 13.9957V9.09573H42V17.4957C57.75 17.4957 71.4 8.39573 71.4 8.39573C72.45 8.04573 73.5 8.74573 73.5 9.79573Z" fill="#1B3C28"/>
</svg>
