<svg width="24" height="24" viewBox="0 0 24 24" fill="none" xmlns="http://www.w3.org/2000/svg">
<path d="M7.5 23V21H5.5V19H7.5V16.9C6.18333 16.6667 5.104 16.0373 4.262 15.012C3.42 13.9867 2.99933 12.7993 3 11.45C3 9.93333 3.53767 8.646 4.613 7.588C5.68833 6.53 6.984 6.00067 8.5 6C10.016 5.99933 11.312 6.52867 12.388 7.588C13.464 8.64733 14.0013 9.93467 14 11.45C14 12.8 13.579 13.9877 12.737 15.013C11.895 16.0383 10.816 16.6673 9.5 16.9V19H11.5V21H9.5V23H7.5ZM8.5 15C9.46667 15 10.2917 14.6583 10.975 13.975C11.6583 13.2917 12 12.4667 12 11.5C12 10.5333 11.6583 9.70833 10.975 9.025C10.2917 8.34167 9.46667 8 8.5 8C7.53333 8 6.70833 8.34167 6.025 9.025C5.34167 9.70833 5 10.5333 5 11.5C5 12.4667 5.34167 13.2917 6.025 13.975C6.70833 14.6583 7.53333 15 8.5 15Z" fill="#1B3C28"/>
<path d="M24 1V7H22V4.425L18.025 8.375C18.3417 8.84167 18.5833 9.33767 18.75 9.863C18.9167 10.3883 19 10.934 19 11.5C19 13.0333 18.4667 14.3333 17.4 15.4C16.3333 16.4667 15.0333 17 13.5 17C11.9667 17 10.6667 16.4667 9.6 15.4C8.53333 14.3333 8 13.0333 8 11.5C8 9.96667 8.53333 8.66667 9.6 7.6C10.6667 6.53333 11.9667 6 13.5 6C14.05 6 14.5917 6.079 15.125 6.237C15.6583 6.395 16.15 6.641 16.6 6.975L20.575 3H18V1H24ZM13.5 8C12.5333 8 11.7083 8.34167 11.025 9.025C10.3417 9.70833 10 10.5333 10 11.5C10 12.4667 10.3417 13.2917 11.025 13.975C11.7083 14.6583 12.5333 15 13.5 15C14.4667 15 15.2917 14.6583 15.975 13.975C16.6583 13.2917 17 12.4667 17 11.5C17 10.5333 16.6583 9.70833 15.975 9.025C15.2917 8.34167 14.4667 8 13.5 8Z" fill="#1B3C28"/>
</svg>
