<svg width="24" height="24" viewBox="0 0 24 24" fill="none" xmlns="http://www.w3.org/2000/svg">
<path d="M13.5 12C13.5 12.3978 13.342 12.7794 13.0607 13.0607C12.7794 13.342 12.3978 13.5 12 13.5C11.6022 13.5 11.2206 13.342 10.9393 13.0607C10.658 12.7794 10.5 12.3978 10.5 12C10.5 11.6022 10.658 11.2206 10.9393 10.9393C11.2206 10.658 11.6022 10.5 12 10.5C12.3978 10.5 12.7794 10.658 13.0607 10.9393C13.342 11.2206 13.5 11.6022 13.5 12Z" fill="white"/>
<path fill-rule="evenodd" clip-rule="evenodd" d="M14.5199 7.88956C14.7308 7.67888 15.0168 7.56055 15.3149 7.56055C15.613 7.56055 15.8989 7.67888 16.1099 7.88956C17.1999 8.97961 17.8123 10.458 17.8123 11.9996C17.8123 13.5411 17.1999 15.0195 16.1099 16.1096C16.0069 16.2201 15.8827 16.3087 15.7447 16.3702C15.6067 16.4317 15.4577 16.4648 15.3067 16.4674C15.1556 16.4701 15.0056 16.4423 14.8655 16.3857C14.7254 16.3292 14.5982 16.2449 14.4913 16.1381C14.3845 16.0313 14.3003 15.904 14.2437 15.764C14.1871 15.6239 14.1593 15.4738 14.162 15.3228C14.1647 15.1717 14.1977 15.0227 14.2592 14.8847C14.3207 14.7468 14.4094 14.6226 14.5199 14.5196C14.851 14.1887 15.1136 13.7959 15.2928 13.3635C15.472 12.9311 15.5642 12.4676 15.5642 11.9996C15.5642 11.5315 15.472 11.068 15.2928 10.6356C15.1136 10.2032 14.851 9.8104 14.5199 9.47956C14.3092 9.26862 14.1909 8.98268 14.1909 8.68456C14.1909 8.38643 14.3092 8.1005 14.5199 7.88956ZM9.47988 7.88956C9.69056 8.1005 9.80889 8.38643 9.80889 8.68456C9.80889 8.98268 9.69056 9.26862 9.47988 9.47956C9.1488 9.8104 8.88615 10.2032 8.70695 10.6356C8.52775 11.068 8.43552 11.5315 8.43552 11.9996C8.43552 12.4676 8.52775 12.9311 8.70695 13.3635C8.88615 13.7959 9.1488 14.1887 9.47988 14.5196C9.59041 14.6226 9.67907 14.7468 9.74056 14.8847C9.80204 15.0227 9.83511 15.1717 9.83777 15.3228C9.84044 15.4738 9.81265 15.6239 9.75607 15.764C9.69949 15.904 9.61527 16.0313 9.50844 16.1381C9.40161 16.2449 9.27436 16.3292 9.13428 16.3857C8.9942 16.4423 8.84415 16.4701 8.6931 16.4674C8.54205 16.4648 8.39308 16.4317 8.25508 16.3702C8.11708 16.3087 7.99288 16.2201 7.88988 16.1096C6.79986 15.0195 6.1875 13.5411 6.1875 11.9996C6.1875 10.458 6.79986 8.97961 7.88988 7.88956C8.10082 7.67888 8.38676 7.56055 8.68488 7.56055C8.98301 7.56055 9.26895 7.67888 9.47988 7.88956Z" fill="white"/>
<path fill-rule="evenodd" clip-rule="evenodd" d="M17.8348 4.5751C18.0457 4.36443 18.3317 4.24609 18.6298 4.24609C18.9279 4.24609 19.2138 4.36443 19.4248 4.5751C20.3999 5.55013 21.1734 6.70769 21.7012 7.98168C22.2289 9.25567 22.5005 10.6211 22.5005 12.0001C22.5005 13.3791 22.2289 14.7445 21.7012 16.0185C21.1734 17.2925 20.3999 18.4501 19.4248 19.4251C19.3218 19.5356 19.1976 19.6243 19.0596 19.6858C18.9216 19.7473 18.7726 19.7803 18.6216 19.783C18.4705 19.7857 18.3205 19.7579 18.1804 19.7013C18.0403 19.6447 17.9131 19.5605 17.8062 19.4537C17.6994 19.3468 17.6152 19.2196 17.5586 19.0795C17.502 18.9394 17.4742 18.7894 17.4769 18.6383C17.4796 18.4873 17.5126 18.3383 17.5741 18.2003C17.6356 18.0623 17.7243 17.9381 17.8348 17.8351C18.6013 17.069 19.2093 16.1593 19.6242 15.1581C20.039 14.1569 20.2525 13.0838 20.2525 12.0001C20.2525 10.9164 20.039 9.84326 19.6242 8.84207C19.2093 7.84088 18.6013 6.93124 17.8348 6.1651C17.6241 5.95417 17.5058 5.66823 17.5058 5.3701C17.5058 5.07198 17.6241 4.78604 17.8348 4.5751ZM6.16478 4.5751C6.37546 4.78604 6.49379 5.07198 6.49379 5.3701C6.49379 5.66823 6.37546 5.95417 6.16478 6.1651C5.39829 6.93124 4.79025 7.84088 4.37541 8.84207C3.96056 9.84326 3.74704 10.9164 3.74704 12.0001C3.74704 13.0838 3.96056 14.1569 4.37541 15.1581C4.79025 16.1593 5.39829 17.069 6.16478 17.8351C6.27531 17.9381 6.36396 18.0623 6.42545 18.2003C6.48694 18.3383 6.52 18.4873 6.52267 18.6383C6.52533 18.7894 6.49755 18.9394 6.44096 19.0795C6.38438 19.2196 6.30017 19.3468 6.19334 19.4537C6.08651 19.5605 5.95926 19.6447 5.81918 19.7013C5.6791 19.7579 5.52905 19.7857 5.378 19.783C5.22694 19.7803 5.07797 19.7473 4.93997 19.6858C4.80197 19.6243 4.67777 19.5356 4.57478 19.4251C3.59965 18.4501 2.82613 17.2925 2.29839 16.0185C1.77065 14.7445 1.49902 13.3791 1.49902 12.0001C1.49902 10.6211 1.77065 9.25567 2.29839 7.98168C2.82613 6.70769 3.59965 5.55013 4.57478 4.5751C4.78572 4.36443 5.07165 4.24609 5.36978 4.24609C5.66791 4.24609 5.95384 4.36443 6.16478 4.5751Z" fill="white"/>
</svg>
