<svg width="24" height="24" viewBox="0 0 24 24" fill="none" xmlns="http://www.w3.org/2000/svg">
<path fill-rule="evenodd" clip-rule="evenodd" d="M8.12996 5.75C8.70696 4.75 10.15 4.75 10.728 5.75L14.228 11.812L15.13 10.25C15.707 9.25 17.15 9.25 17.728 10.25L22.058 17.75C22.1896 17.978 22.2589 18.2367 22.2589 18.5C22.2589 18.7633 22.1896 19.022 22.058 19.25C21.9263 19.478 21.737 19.6674 21.5089 19.799C21.2809 19.9307 21.0223 20 20.759 20H16.429V19.998L16.357 20H2.50096C2.23758 20.0002 1.97879 19.931 1.75063 19.7994C1.52246 19.6678 1.33297 19.4785 1.2012 19.2504C1.06944 19.0224 1.00004 18.7636 1 18.5002C0.999958 18.2369 1.06927 17.9781 1.20096 17.75L8.12996 5.75ZM7.21996 11.326L7.92896 11.798L8.87396 11.168C9.03829 11.0584 9.23141 10.9999 9.42896 10.9999C9.62651 10.9999 9.81963 11.0584 9.98396 11.168L10.929 11.798L11.638 11.326L9.42896 7.5L7.21996 11.326Z" fill="#1B3C28"/>
</svg>
