<svg width="28" height="21" viewBox="0 0 28 21" fill="none" xmlns="http://www.w3.org/2000/svg">
<path d="M7.36426 0.291992C8.14941 0.291992 8.90234 0.394531 9.62305 0.599609C10.3438 0.798828 10.9971 1.08887 11.583 1.46973C12.1748 1.84473 12.6611 2.29883 13.042 2.83203C13.1475 2.97852 13.2148 3.09277 13.2441 3.1748C13.2734 3.25684 13.2881 3.37402 13.2881 3.52637V20.2607C13.2881 20.4072 13.2441 20.5215 13.1562 20.6035C13.0684 20.6914 12.957 20.7354 12.8223 20.7354C12.6699 20.7354 12.5264 20.6768 12.3916 20.5596C12.0107 20.2373 11.5801 19.9531 11.0996 19.707C10.6191 19.4609 10.1035 19.2676 9.55273 19.127C9.00195 18.9922 8.42188 18.9248 7.8125 18.9248C6.88672 18.9248 5.97852 19.0713 5.08789 19.3643C4.19727 19.6572 3.40918 20.0938 2.72363 20.6738C2.57129 20.7793 2.42773 20.8584 2.29297 20.9111C2.16406 20.9697 2.01758 20.999 1.85352 20.999C1.55469 20.999 1.32031 20.917 1.15039 20.7529C0.980469 20.5889 0.895508 20.3633 0.895508 20.0762V4.25586C0.895508 4.0332 0.904297 3.86621 0.921875 3.75488C0.945312 3.6377 0.995117 3.51172 1.07129 3.37695C1.45215 2.73242 1.97363 2.18164 2.63574 1.72461C3.30371 1.26172 4.04785 0.907227 4.86816 0.661133C5.69434 0.415039 6.52637 0.291992 7.36426 0.291992ZM20.6445 0.291992C21.4824 0.291992 22.3086 0.415039 23.123 0.661133C23.9434 0.907227 24.6875 1.26172 25.3555 1.72461C26.0234 2.18164 26.5479 2.73242 26.9287 3.37695C27.0049 3.50586 27.0518 3.62891 27.0693 3.74609C27.0928 3.86328 27.1045 4.0332 27.1045 4.25586V20.0762C27.1045 20.3633 27.0195 20.5889 26.8496 20.7529C26.6855 20.917 26.4512 20.999 26.1465 20.999C25.9824 20.999 25.833 20.9697 25.6982 20.9111C25.5693 20.8584 25.4316 20.7793 25.2852 20.6738C24.5938 20.0938 23.8027 19.6572 22.9121 19.3643C22.0273 19.0713 21.1162 18.9248 20.1787 18.9248C19.5752 18.9248 18.9951 18.9922 18.4385 19.127C17.8877 19.2676 17.3721 19.4609 16.8916 19.707C16.417 19.9531 15.9863 20.2373 15.5996 20.5596C15.4707 20.6768 15.3301 20.7354 15.1777 20.7354C15.0488 20.7354 14.9404 20.6914 14.8525 20.6035C14.7646 20.5215 14.7207 20.4072 14.7207 20.2607V3.52637C14.7207 3.37402 14.7324 3.25684 14.7559 3.1748C14.7852 3.09277 14.8496 2.97852 14.9492 2.83203C15.3359 2.29883 15.8223 1.84473 16.4082 1.46973C16.9941 1.08887 17.6504 0.798828 18.377 0.599609C19.1035 0.394531 19.8594 0.291992 20.6445 0.291992Z" fill="#1B3C28"/>
</svg>
