<svg width="24" height="21" viewBox="0 0 24 21" fill="none" xmlns="http://www.w3.org/2000/svg">
<path fill-rule="evenodd" clip-rule="evenodd" d="M2.25 2.25V14.25H21.75V2.25H2.25ZM1.5 16.5H7.5V18.75H5.625C5.32663 18.75 5.04048 18.8685 4.8295 19.0795C4.61853 19.2905 4.5 19.5766 4.5 19.875C4.5 20.1734 4.61853 20.4595 4.8295 20.6705C5.04048 20.8815 5.32663 21 5.625 21H18.375C18.6734 21 18.9595 20.8815 19.1705 20.6705C19.3815 20.4595 19.5 20.1734 19.5 19.875C19.5 19.5766 19.3815 19.2905 19.1705 19.0795C18.9595 18.8685 18.6734 18.75 18.375 18.75H16.5V16.5H22.5C22.8978 16.5 23.2794 16.342 23.5607 16.0607C23.842 15.7794 24 15.3978 24 15V1.5C24 1.10218 23.842 0.720644 23.5607 0.43934C23.2794 0.158035 22.8978 0 22.5 0H1.5C1.10218 0 0.720644 0.158035 0.43934 0.43934C0.158035 0.720644 0 1.10218 0 1.5L0 15C0 15.3978 0.158035 15.7794 0.43934 16.0607C0.720644 16.342 1.10218 16.5 1.5 16.5ZM9.75 18.75V16.5H14.25V18.75H9.75ZM17.25 7.125C17.25 6.82663 17.1315 6.54048 16.9205 6.3295C16.7095 6.11853 16.4234 6 16.125 6C15.8266 6 15.5405 6.11853 15.3295 6.3295C15.1185 6.54048 15 6.82663 15 7.125V10.875C15 11.1734 15.1185 11.4595 15.3295 11.6705C15.5405 11.8815 15.8266 12 16.125 12C16.4234 12 16.7095 11.8815 16.9205 11.6705C17.1315 11.4595 17.25 11.1734 17.25 10.875V7.125ZM11.625 4.5C11.9234 4.5 12.2095 4.61853 12.4205 4.8295C12.6315 5.04048 12.75 5.32663 12.75 5.625V10.875C12.75 11.1734 12.6315 11.4595 12.4205 11.6705C12.2095 11.8815 11.9234 12 11.625 12C11.3266 12 11.0405 11.8815 10.8295 11.6705C10.6185 11.4595 10.5 11.1734 10.5 10.875V5.625C10.5 5.32663 10.6185 5.04048 10.8295 4.8295C11.0405 4.61853 11.3266 4.5 11.625 4.5ZM8.25 8.625C8.25 8.32663 8.13147 8.04048 7.9205 7.8295C7.70952 7.61853 7.42337 7.5 7.125 7.5C6.82663 7.5 6.54048 7.61853 6.3295 7.8295C6.11853 8.04048 6 8.32663 6 8.625V10.875C6 11.1734 6.11853 11.4595 6.3295 11.6705C6.54048 11.8815 6.82663 12 7.125 12C7.42337 12 7.70952 11.8815 7.9205 11.6705C8.13147 11.4595 8.25 11.1734 8.25 10.875V8.625Z" fill="#1B3C28"/>
</svg>
