<svg width="84" height="84" viewBox="0 0 84 84" fill="none" xmlns="http://www.w3.org/2000/svg">
<path fill-rule="evenodd" clip-rule="evenodd" d="M17.3939 70.0468H11.2892C10.6821 70.0468 10.0998 70.288 9.6705 70.7173C9.24119 71.1466 9 71.7289 9 72.3361C9 72.9432 9.24119 73.5255 9.6705 73.9548C10.0998 74.3841 10.6821 74.6253 11.2892 74.6253H72.3358C72.9429 74.6253 73.5252 74.3841 73.9545 73.9548C74.3838 73.5255 74.625 72.9432 74.625 72.3361C74.625 71.7289 74.3838 71.1466 73.9545 70.7173C73.5252 70.288 72.9429 70.0468 72.3358 70.0468H66.2311V54.0221C66.2311 45.4756 66.2311 41.2024 64.5676 37.9364C63.1044 35.0648 60.7698 32.7302 57.8983 31.267C54.6323 29.6035 50.359 29.6035 41.8125 29.6035C33.266 29.6035 28.9927 29.6035 25.7267 31.267C22.8552 32.7302 20.5206 35.0648 19.0574 37.9364C17.3939 41.2024 17.3939 45.4756 17.3939 54.0221V70.0468ZM46.391 58.6006C46.3915 59.4048 46.1802 60.1949 45.7783 60.8915C45.3764 61.5881 44.7982 62.1665 44.1017 62.5686V70.0468H39.5233V62.5686C38.8273 62.1668 38.2494 61.589 37.8476 60.8931C37.4458 60.1972 37.2341 59.4078 37.234 58.6043C37.2339 57.8007 37.4452 57.0113 37.8469 56.3153C38.2485 55.6192 38.8262 55.0412 39.522 54.6392C40.2178 54.2372 41.0071 54.0254 41.8107 54.0251C42.6142 54.0247 43.4037 54.2359 44.0998 54.6374C44.7959 55.0388 45.3741 55.6164 45.7763 56.3121C46.1785 57.0078 46.3905 57.797 46.391 58.6006ZM50.9695 35.9066C50.3623 35.9066 49.7801 36.1478 49.3507 36.5771C48.9214 37.0064 48.6802 37.5887 48.6802 38.1958C48.6802 38.803 48.9214 39.3852 49.3507 39.8146C49.7801 40.2439 50.3623 40.4851 50.9695 40.4851C53.5395 40.4851 55.4381 42.4324 55.3526 44.7827C55.3345 45.3872 55.5563 45.9743 55.9696 46.4157C56.3829 46.8572 56.9541 47.1172 57.5584 47.139C58.1628 47.1608 58.7512 46.9425 59.1952 46.5319C59.6391 46.1213 59.9026 45.5518 59.9281 44.9476C60.1142 39.7891 55.9081 35.9066 50.9695 35.9066Z" fill="#1B3C28"/>
<path d="M41.8124 9C42.4196 9 43.0019 9.24119 43.4312 9.6705C43.8605 10.0998 44.1017 10.6821 44.1017 11.2892V20.4462C44.1017 21.0534 43.8605 21.6356 43.4312 22.065C43.0019 22.4943 42.4196 22.7355 41.8124 22.7355C41.2053 22.7355 40.623 22.4943 40.1937 22.065C39.7644 21.6356 39.5232 21.0534 39.5232 20.4462V11.2892C39.5232 10.6821 39.7644 10.0998 40.1937 9.6705C40.623 9.24119 41.2053 9 41.8124 9ZM70.9011 22.064L66.3226 26.6424C66.113 26.8674 65.8603 27.0478 65.5795 27.1729C65.2987 27.298 64.9955 27.3653 64.6882 27.3707C64.3808 27.3761 64.0755 27.3196 63.7904 27.2044C63.5054 27.0893 63.2464 26.9179 63.029 26.7006C62.8117 26.4832 62.6403 26.2242 62.5252 25.9392C62.41 25.6541 62.3535 25.3488 62.3589 25.0414C62.3643 24.7341 62.4316 24.4309 62.5567 24.1501C62.6818 23.8693 62.8622 23.6166 63.0872 23.407L67.6656 18.8285C67.8752 18.6036 68.128 18.4232 68.4088 18.2981C68.6896 18.1729 68.9927 18.1057 69.3001 18.1002C69.6075 18.0948 69.9128 18.1513 70.1978 18.2665C70.4829 18.3816 70.7418 18.553 70.9592 18.7704C71.1766 18.9878 71.348 19.2467 71.4631 19.5318C71.5783 19.8168 71.6348 20.1221 71.6294 20.4295C71.6239 20.7369 71.5567 21.04 71.4315 21.3208C71.3064 21.6016 71.126 21.8544 70.9011 22.064ZM15.9592 18.8285C15.5253 18.4241 14.9513 18.204 14.3582 18.2144C13.7652 18.2249 13.1993 18.4652 12.7799 18.8846C12.3605 19.304 12.1202 19.8699 12.1097 20.4629C12.0993 21.056 12.3194 21.63 12.7238 22.064L17.3023 26.6424C17.7362 27.0468 18.3102 27.267 18.9033 27.2565C19.4964 27.246 20.0622 27.0058 20.4816 26.5863C20.9011 26.1669 21.1413 25.6011 21.1518 25.008C21.1623 24.4149 20.9421 23.8409 20.5377 23.407L15.9592 18.8285Z" fill="#1B3C28"/>
</svg>
