<svg width="27" height="31" viewBox="0 0 27 31" fill="none" xmlns="http://www.w3.org/2000/svg">
<path d="M11.6683 3.52222C12.5901 3.52222 13.3348 4.26694 13.3348 5.18873V6.75629L14.116 5.97512C14.6055 5.48558 15.3971 5.48558 15.8814 5.97512C16.3658 6.46465 16.371 7.25625 15.8814 7.74058L13.3296 10.2924V13.9535L16.5272 12.0891L17.449 8.64674C17.6261 7.98014 18.3135 7.58434 18.9801 7.76141C19.6467 7.93848 20.0425 8.62591 19.8655 9.29252L19.5947 10.2976L20.8237 9.57895C21.6205 9.11545 22.6412 9.38626 23.1047 10.1779C23.5682 10.9694 23.3026 11.9954 22.5058 12.4589L21.1883 13.2297L22.3184 13.5317C22.985 13.7088 23.3808 14.3962 23.2037 15.0628C23.0266 15.7294 22.3392 16.1252 21.6726 15.9482L18.1469 15.0055L14.9753 16.8543L18.1469 18.7031L21.6726 17.7605C22.3392 17.5834 23.0266 17.9792 23.2037 18.6458C23.3808 19.3124 22.985 19.9999 22.3184 20.1769L21.1883 20.479L22.5058 21.2497C23.3026 21.7132 23.5682 22.734 23.1047 23.5308C22.6412 24.3276 21.6205 24.5932 20.8237 24.1297L19.5947 23.411L19.8655 24.4161C20.0425 25.0827 19.6467 25.7702 18.9801 25.9472C18.3135 26.1243 17.6261 25.7285 17.449 25.0619L16.5272 21.6195L13.3348 19.7551V23.4162L15.8867 25.9681C16.3762 26.4576 16.3762 27.2492 15.8867 27.7335C15.3971 28.2179 14.6055 28.2231 14.1212 27.7335L13.34 26.9523V28.5199C13.34 29.4417 12.5953 30.1864 11.6735 30.1864C10.7517 30.1864 10.007 29.4417 10.007 28.5199V26.9523L9.22581 27.7335C8.73628 28.2231 7.94468 28.2231 7.46035 27.7335C6.97602 27.244 6.97081 26.4524 7.46035 25.9681L10.0122 23.4162V19.7551L6.81458 21.6195L5.89279 25.0619C5.71572 25.7285 5.02828 26.1243 4.36168 25.9472C3.69507 25.7702 3.29928 25.0827 3.47634 24.4161L3.74715 23.411L2.50768 24.1245C1.71088 24.588 0.690143 24.3172 0.226644 23.5256C-0.236855 22.734 0.0339535 21.708 0.825547 21.2445L2.14313 20.4738L1.01303 20.1717C0.346425 19.9947 -0.0493721 19.3072 0.127695 18.6406C0.304762 17.974 0.992198 17.5782 1.6588 17.7553L5.18452 18.6979L8.36131 16.8543L5.18973 15.0055L1.66401 15.9482C0.997406 16.1252 0.30997 15.7294 0.132903 15.0628C-0.0441643 14.3962 0.351633 13.7088 1.01824 13.5317L2.14834 13.2297L0.830755 12.4589C0.0339535 11.9954 -0.231647 10.9747 0.231852 10.1831C0.695351 9.39147 1.71609 9.12066 2.51289 9.58416L3.74195 10.3028L3.47114 9.29773C3.29407 8.63112 3.68987 7.94368 4.35647 7.76662C5.02308 7.58955 5.71051 7.98535 5.88758 8.65195L6.80937 12.0943L10.0018 13.9535V10.2924L7.44994 7.74058C6.9604 7.25104 6.9604 6.45945 7.44994 5.97512C7.93947 5.49079 8.73107 5.48558 9.2154 5.97512L9.99658 6.75629L10.0018 5.18873C10.0018 4.26694 10.7465 3.52222 11.6683 3.52222Z" fill="#F9F4EC"/>
<path d="M15.2607 5.86969C15.2607 4.31298 15.8791 2.82003 16.9799 1.71928C18.0807 0.618521 19.5736 0.00012207 21.1303 0.00012207C22.687 0.00012207 24.18 0.618521 25.2807 1.71928C26.3815 2.82003 26.9999 4.31298 26.9999 5.86969C26.9999 7.42639 26.3815 8.91934 25.2807 10.0201C24.18 11.1209 22.687 11.7393 21.1303 11.7393C19.5736 11.7393 18.0807 11.1209 16.9799 10.0201C15.8791 8.91934 15.2607 7.42639 15.2607 5.86969ZM20.3966 6.60338H21.864V2.9349H20.3966V6.60338ZM21.864 8.07078C21.864 7.87619 21.7867 7.68957 21.6491 7.55197C21.5115 7.41438 21.3249 7.33708 21.1303 7.33708C20.9357 7.33708 20.7491 7.41438 20.6115 7.55197C20.4739 7.68957 20.3966 7.87619 20.3966 8.07078C20.3966 8.26536 20.4739 8.45198 20.6115 8.58958C20.7491 8.72717 20.9357 8.80447 21.1303 8.80447C21.3249 8.80447 21.5115 8.72717 21.6491 8.58958C21.7867 8.45198 21.864 8.26536 21.864 8.07078Z" fill="#F9F4EC"/>
</svg>
