<svg width="24" height="24" viewBox="0 0 24 24" fill="none" xmlns="http://www.w3.org/2000/svg">
<path d="M11.9912 23.2471C10.7197 23.2471 9.50684 23.0479 8.35254 22.6494C7.19824 22.2568 6.1377 21.7031 5.1709 20.9883C4.2041 20.2793 3.36328 19.4414 2.64844 18.4746C1.93359 17.5078 1.37988 16.4473 0.987305 15.293C0.594727 14.1328 0.398438 12.9199 0.398438 11.6543C0.398438 10.3828 0.594727 9.16992 0.987305 8.01562C1.37988 6.86133 1.93359 5.80078 2.64844 4.83398C3.36328 3.86719 4.20117 3.02637 5.16211 2.31152C6.12891 1.59668 7.18945 1.04297 8.34375 0.650391C9.49805 0.251953 10.7109 0.0527344 11.9824 0.0527344C13.2539 0.0527344 14.4668 0.251953 15.6211 0.650391C16.7812 1.04297 17.8447 1.59668 18.8115 2.31152C19.7783 3.02637 20.6191 3.86719 21.334 4.83398C22.0488 5.80078 22.6025 6.86133 22.9951 8.01562C23.3936 9.16992 23.5928 10.3828 23.5928 11.6543C23.5928 12.9199 23.3936 14.1328 22.9951 15.293C22.6025 16.4473 22.0488 17.5078 21.334 18.4746C20.6191 19.4414 19.7783 20.2793 18.8115 20.9883C17.8447 21.7031 16.7842 22.2568 15.6299 22.6494C14.4756 23.0479 13.2627 23.2471 11.9912 23.2471ZM10.752 15.1875C11.2207 15.1875 11.6689 15.1201 12.0967 14.9854C12.5303 14.8506 12.9316 14.666 13.3008 14.4316L16.2627 17.3848C16.4854 17.625 16.752 17.7451 17.0625 17.7451C17.3496 17.7451 17.584 17.6514 17.7656 17.4639C17.9473 17.2705 18.0381 17.0273 18.0381 16.7344C18.0381 16.5996 18.0088 16.4707 17.9502 16.3477C17.8975 16.2246 17.8213 16.1133 17.7217 16.0137L14.751 13.0254C15.0088 12.6445 15.2109 12.2285 15.3574 11.7773C15.5039 11.3203 15.5771 10.8457 15.5771 10.3535C15.5771 9.68555 15.4512 9.05859 15.1992 8.47266C14.9473 7.88672 14.5986 7.37109 14.1533 6.92578C13.7139 6.48047 13.2012 6.13184 12.6152 5.87988C12.0352 5.62793 11.4141 5.50195 10.752 5.50195C10.0898 5.50195 9.46582 5.62793 8.87988 5.87988C8.29395 6.13184 7.77832 6.4834 7.33301 6.93457C6.8877 7.37988 6.53906 7.89551 6.28711 8.48145C6.03516 9.06152 5.90918 9.68555 5.90918 10.3535C5.90918 11.0156 6.03516 11.6396 6.28711 12.2256C6.53906 12.8057 6.8877 13.3184 7.33301 13.7637C7.77832 14.209 8.29395 14.5576 8.87988 14.8096C9.46582 15.0615 10.0898 15.1875 10.752 15.1875ZM10.752 13.6318C10.1543 13.6318 9.60352 13.4824 9.09961 13.1836C8.60156 12.8848 8.20312 12.4863 7.9043 11.9883C7.61133 11.4902 7.46484 10.9424 7.46484 10.3447C7.46484 9.74707 7.61133 9.19922 7.9043 8.70117C8.20312 8.19727 8.60156 7.79883 9.09961 7.50586C9.60352 7.20703 10.1543 7.05762 10.752 7.05762C11.3555 7.05762 11.9033 7.20703 12.3955 7.50586C12.8877 7.79883 13.2803 8.19434 13.5732 8.69238C13.8721 9.19043 14.0215 9.74121 14.0215 10.3447C14.0215 10.9424 13.8721 11.4902 13.5732 11.9883C13.2803 12.4863 12.8877 12.8848 12.3955 13.1836C11.9033 13.4824 11.3555 13.6318 10.752 13.6318Z" fill="#1B3C28"/>
</svg>
