<svg width="84" height="84" viewBox="0 0 84 84" fill="none" xmlns="http://www.w3.org/2000/svg">
<path d="M29.75 31.5C23.7163 31.5 17.9298 33.8969 13.6633 38.1633C9.39687 42.4298 7 48.2163 7 54.25C7 57.2376 7.58845 60.1959 8.73174 62.956C9.87503 65.7162 11.5508 68.2241 13.6633 70.3367C17.9298 74.6031 23.7163 77 29.75 77C32.7376 77 35.6959 76.4115 38.456 75.2682C41.2162 74.125 43.7241 72.4492 45.8367 70.3367C47.9492 68.2241 49.625 65.7162 50.7683 62.956C51.9115 60.1959 52.5 57.2376 52.5 54.25V48.685L77 42V31.5H38.5V38.5H31.5V31.5H29.75ZM38.5 7V24.5H31.5V7H38.5ZM22.225 25.48C19.88 26.04 17.64 26.88 15.505 28L7.49 17.08L13.16 12.95L22.225 25.48ZM62.51 17.08L57.12 24.5H48.475L56.84 12.95L62.51 17.08Z" fill="#1B3C28"/>
</svg>
