<svg width="16" height="16" viewBox="0 0 16 16" fill="none" xmlns="http://www.w3.org/2000/svg">
<path d="M4.66683 1.33337C5.8535 1.33337 6.44683 2.77337 5.6135 3.61337C4.7735 4.44671 3.3335 3.85337 3.3335 2.66671C3.3335 2.31309 3.47397 1.97395 3.72402 1.7239C3.97407 1.47385 4.31321 1.33337 4.66683 1.33337ZM3.66683 4.66671H5.66683C6.02045 4.66671 6.35959 4.80718 6.60964 5.05723C6.85969 5.30728 7.00016 5.64642 7.00016 6.00004V9.16671C7.00016 9.44285 6.77631 9.66671 6.50016 9.66671C6.22402 9.66671 6.00016 9.89056 6.00016 10.1667V13.3334C6.00016 14.0698 5.40321 14.6667 4.66683 14.6667C3.93045 14.6667 3.3335 14.0698 3.3335 13.3334V10.1667C3.3335 9.89056 3.10964 9.66671 2.8335 9.66671C2.55735 9.66671 2.3335 9.44285 2.3335 9.16671V6.00004C2.3335 5.64642 2.47397 5.30728 2.72402 5.05723C2.97407 4.80718 3.31321 4.66671 3.66683 4.66671ZM14.0002 5.33337H10.6668C10.2986 5.33337 10.0002 5.63185 10.0002 6.00004C10.0002 6.36823 10.2986 6.66671 10.6668 6.66671H14.0002M14.0002 7.33337H12.6668C12.2986 7.33337 12.0002 7.63185 12.0002 8.00004C12.0002 8.36823 12.2986 8.66671 12.6668 8.66671H14.0002M14.0002 1.33337H10.6668C10.2986 1.33337 10.0002 1.63185 10.0002 2.00004C10.0002 2.36823 10.2986 2.66671 10.6668 2.66671H14.0002M14.0002 3.33337H12.6668C12.2986 3.33337 12.0002 3.63185 12.0002 4.00004C12.0002 4.36823 12.2986 4.66671 12.6668 4.66671H14.0002M14.0002 9.33337H10.6668C10.2986 9.33337 10.0002 9.63185 10.0002 10C10.0002 10.3682 10.2986 10.6667 10.6668 10.6667H14.0002M14.0002 13.3334H10.6668C10.2986 13.3334 10.0002 13.6319 10.0002 14C10.0002 14.3682 10.2986 14.6667 10.6668 14.6667H14.0002M14.0002 11.3334H12.6668C12.2986 11.3334 12.0002 11.6319 12.0002 12C12.0002 12.3682 12.2986 12.6667 12.6668 12.6667H14.0002" fill="#1B3C28"/>
</svg>
