<svg width="84" height="84" viewBox="0 0 84 84" fill="none" xmlns="http://www.w3.org/2000/svg">
<path d="M17.0989 55.4612C14.996 55.4612 13.1575 55.1537 11.5835 54.5388C10.0217 53.9117 8.79194 53.0201 7.89423 51.8641C6.99651 50.6959 6.49232 49.294 6.38164 47.6584L6.36319 47.3633H11.6204L11.6572 47.5662C11.7802 48.2548 12.0877 48.8513 12.5796 49.3555C13.0838 49.8474 13.7355 50.2347 14.5349 50.5176C15.3342 50.7881 16.238 50.9234 17.2464 50.9234C18.2794 50.9234 19.1648 50.7881 19.9027 50.5176C20.6528 50.2347 21.2308 49.8412 21.6366 49.337C22.0547 48.8205 22.2638 48.2241 22.2638 47.5477V47.5293C22.2638 46.6316 21.9072 45.9306 21.1939 45.4264C20.493 44.9099 19.3124 44.4795 17.6523 44.1352L14.8484 43.5818C12.2291 43.053 10.2553 42.1615 8.92721 40.9071C7.59909 39.6528 6.93503 38.0234 6.93503 36.0189V36.0004C6.93503 34.3772 7.37159 32.963 8.2447 31.7578C9.11782 30.5404 10.3168 29.5996 11.8417 28.9355C13.3666 28.2592 15.1128 27.921 17.0804 27.921C19.1341 27.921 20.9049 28.2407 22.3929 28.8802C23.8932 29.5197 25.0615 30.4235 25.8977 31.5918C26.7339 32.7601 27.1951 34.1189 27.2812 35.6684L27.2996 36.0189H22.0424L22.024 35.7975C21.9256 35.0966 21.6612 34.5001 21.2308 34.0082C20.8004 33.5041 20.2286 33.1167 19.5153 32.8461C18.8144 32.5756 18.0027 32.4403 17.0804 32.4403C16.1335 32.4403 15.3157 32.5817 14.6271 32.8646C13.9384 33.1351 13.4096 33.5102 13.0407 33.9898C12.6841 34.4694 12.5058 35.0289 12.5058 35.6684V35.6868C12.5058 36.5231 12.8624 37.1994 13.5757 37.7159C14.2889 38.2324 15.408 38.6444 16.9329 38.9518L19.7551 39.5237C21.612 39.8926 23.1369 40.4029 24.3298 41.0547C25.5226 41.7065 26.4019 42.5304 26.9676 43.5265C27.5456 44.5103 27.8345 45.697 27.8345 47.0866V47.105C27.8345 48.8144 27.4041 50.2962 26.5433 51.5506C25.6948 52.7926 24.465 53.758 22.8541 54.4466C21.2554 55.123 19.337 55.4612 17.0989 55.4612ZM42.5 55.4612C39.8683 55.4612 37.5872 54.9016 35.6565 53.7826C33.7381 52.6635 32.2562 51.0771 31.2109 49.0234C30.178 46.9575 29.6615 44.5164 29.6615 41.7003V41.6634C29.6615 38.835 30.1841 36.394 31.2294 34.3403C32.2747 32.2866 33.7565 30.7064 35.6749 29.5996C37.6056 28.4805 39.8806 27.921 42.5 27.921C45.1317 27.921 47.4067 28.4805 49.3251 29.5996C51.2435 30.7187 52.7253 32.305 53.7706 34.3587C54.8159 36.4001 55.3385 38.835 55.3385 41.6634V41.7003C55.3385 44.5164 54.8159 46.9575 53.7706 49.0234C52.7253 51.0771 51.2435 52.6635 49.3251 53.7826C47.419 54.9016 45.144 55.4612 42.5 55.4612ZM42.5 50.7389C43.9757 50.7389 45.2485 50.37 46.3184 49.6322C47.3882 48.882 48.2122 47.8306 48.7901 46.4779C49.3681 45.1251 49.6571 43.5326 49.6571 41.7003V41.6634C49.6571 39.8065 49.362 38.2078 48.7717 36.8674C48.1937 35.5147 47.3636 34.4755 46.2815 33.75C45.2116 33.0122 43.9511 32.6432 42.5 32.6432C41.0489 32.6432 39.7823 33.006 38.7001 33.7316C37.6302 34.4571 36.8001 35.4962 36.2099 36.849C35.6319 38.1894 35.3429 39.7942 35.3429 41.6634V41.7003C35.3429 43.5449 35.6319 45.1436 36.2099 46.4963C36.8001 47.849 37.6302 48.8943 38.7001 49.6322C39.77 50.37 41.0366 50.7389 42.5 50.7389ZM67.9011 55.4612C65.7983 55.4612 63.9598 55.1537 62.3857 54.5388C60.8239 53.9117 59.5942 53.0201 58.6965 51.8641C57.7988 50.6959 57.2946 49.294 57.1839 47.6584L57.1655 47.3633H62.4226L62.4595 47.5662C62.5825 48.2548 62.8899 48.8513 63.3818 49.3555C63.886 49.8474 64.5378 50.2347 65.3371 50.5176C66.1364 50.7881 67.0403 50.9234 68.0487 50.9234C69.0817 50.9234 69.9671 50.7881 70.7049 50.5176C71.4551 50.2347 72.0331 49.8412 72.4389 49.337C72.857 48.8205 73.0661 48.2241 73.0661 47.5477V47.5293C73.0661 46.6316 72.7094 45.9306 71.9962 45.4264C71.2952 44.9099 70.1147 44.4795 68.4545 44.1352L65.6507 43.5818C63.0313 43.053 61.0576 42.1615 59.7295 40.9071C58.4013 39.6528 57.7373 38.0234 57.7373 36.0189V36.0004C57.7373 34.3772 58.1738 32.963 59.047 31.7578C59.9201 30.5404 61.1191 29.5996 62.644 28.9355C64.1689 28.2592 65.9151 27.921 67.8827 27.921C69.9364 27.921 71.7072 28.2407 73.1952 28.8802C74.6955 29.5197 75.8637 30.4235 76.7 31.5918C77.5362 32.7601 77.9973 34.1189 78.0834 35.6684L78.1019 36.0189H72.8447L72.8263 35.7975C72.7279 35.0966 72.4635 34.5001 72.0331 34.0082C71.6027 33.5041 71.0308 33.1167 70.3176 32.8461C69.6166 32.5756 68.805 32.4403 67.8827 32.4403C66.9358 32.4403 66.118 32.5817 65.4293 32.8646C64.7407 33.1351 64.2119 33.5102 63.843 33.9898C63.4863 34.4694 63.308 35.0289 63.308 35.6684V35.6868C63.308 36.5231 63.6647 37.1994 64.3779 37.7159C65.0912 38.2324 66.2102 38.6444 67.7351 38.9518L70.5574 39.5237C72.4143 39.8926 73.9392 40.4029 75.132 41.0547C76.3249 41.7065 77.2042 42.5304 77.7698 43.5265C78.3478 44.5103 78.6368 45.697 78.6368 47.0866V47.105C78.6368 48.8144 78.2064 50.2962 77.3456 51.5506C76.497 52.7926 75.2673 53.758 73.6563 54.4466C72.0577 55.123 70.1393 55.4612 67.9011 55.4612Z" fill="#1B3C28"/>
</svg>
