<svg width="16" height="16" viewBox="0 0 16 16" fill="none" xmlns="http://www.w3.org/2000/svg">
<path d="M2.84084 1.95342C3.52404 1.57102 4.39524 1.48142 5.22804 1.69262C5.63364 1.79502 5.98004 2.05822 6.18804 2.42062L6.90644 3.67342C7.16249 4.12006 7.23644 4.64823 7.11291 5.14801C6.98938 5.6478 6.67788 6.0807 6.24324 6.35662L5.61124 6.75822C5.34964 6.92382 5.25364 7.17742 5.31364 7.37822C5.52804 8.09662 6.00244 8.89342 6.52404 9.43902C6.67924 9.60222 6.96404 9.64062 7.24244 9.47822L7.59204 9.27422C7.82143 9.14051 8.07516 9.05382 8.33841 9.0192C8.60166 8.98457 8.86917 9.00272 9.12533 9.07257C9.3815 9.14242 9.62119 9.26258 9.83043 9.42603C10.0397 9.58949 10.2143 9.79298 10.344 10.0246L10.988 11.1726C11.1984 11.5486 11.2328 11.9974 11.084 12.4014C10.7872 13.2038 10.2152 13.851 9.51204 14.175C8.79764 14.5038 7.96164 14.4902 7.20484 13.9854C6.00644 13.187 4.56244 11.843 3.25444 9.60142C1.92964 7.32942 1.59604 5.39582 1.63364 3.95422C1.65764 3.03182 2.14564 2.34222 2.84084 1.95342Z" fill="#1B3C28"/>
<path d="M11.3931 7.24277V5.17919L9.60694 6.21098L9 5.16185L10.7861 4.12139L9 3.0896L9.60694 2.04046L11.3931 3.07225V1H12.6069V3.07225L14.3931 2.04046L15 3.0896L13.2139 4.12139L15 5.16185L14.3931 6.21098L12.6069 5.17919V7.24277H11.3931Z" fill="#1B3C28"/>
</svg>
