<svg width="36" height="36" viewBox="0 0 36 36" fill="none" xmlns="http://www.w3.org/2000/svg">
<path fill-rule="evenodd" clip-rule="evenodd" d="M12.1949 8.625C13.0604 7.125 15.2249 7.125 16.0919 8.625L21.3419 17.718L22.6949 15.375C23.5604 13.875 25.7249 13.875 26.5919 15.375L33.0869 26.625C33.2844 26.967 33.3884 27.355 33.3884 27.75C33.3884 28.1449 33.2844 28.5329 33.087 28.875C32.8895 29.217 32.6055 29.5011 32.2634 29.6985C31.9214 29.896 31.5334 30 31.1384 30H24.6434V29.997L24.5354 30H3.75144C3.35636 30.0003 2.96818 29.8965 2.62594 29.6991C2.28369 29.5017 1.99945 29.2177 1.8018 28.8756C1.60415 28.5335 1.50006 28.1454 1.5 27.7504C1.49994 27.3553 1.6039 26.9671 1.80144 26.625L12.1949 8.625ZM10.8299 16.989L11.8934 17.697L13.3109 16.752C13.5574 16.5875 13.8471 16.4998 14.1434 16.4998C14.4398 16.4998 14.7294 16.5875 14.9759 16.752L16.3934 17.697L17.4569 16.989L14.1434 11.25L10.8299 16.989Z" fill="#1B3C28"/>
</svg>
