<svg width="18" height="18" viewBox="0 0 18 18" fill="none" xmlns="http://www.w3.org/2000/svg">
<rect x="0.5" y="0.5" width="17" height="17" rx="8.5" fill="#1B3C28"/>
<rect x="0.5" y="0.5" width="17" height="17" rx="8.5" stroke="#1B3C28"/>
<path fill-rule="evenodd" clip-rule="evenodd" d="M9.41561 13.745L9.41103 13.7458L9.38145 13.7604L9.37311 13.762L9.36728 13.7604L9.3377 13.7458C9.33325 13.7444 9.32992 13.7451 9.3277 13.7479L9.32603 13.752L9.31895 13.9304L9.32103 13.9387L9.3252 13.9441L9.36853 13.975L9.37478 13.9766L9.37978 13.975L9.42311 13.9441L9.42811 13.9375L9.42978 13.9304L9.4227 13.7525C9.42158 13.748 9.41922 13.7455 9.41561 13.745ZM9.52603 13.6979L9.52061 13.6987L9.44353 13.7375L9.43936 13.7416L9.43811 13.7462L9.44561 13.9254L9.4477 13.9304L9.45103 13.9333L9.53478 13.972C9.54006 13.9734 9.54408 13.9723 9.54686 13.9687L9.54853 13.9629L9.53436 13.707C9.53297 13.702 9.5302 13.699 9.52603 13.6979ZM9.22811 13.6987C9.22628 13.6976 9.22408 13.6972 9.22199 13.6977C9.21989 13.6982 9.21805 13.6994 9.21686 13.7012L9.21436 13.707L9.2002 13.9629C9.20047 13.9679 9.20283 13.9712 9.20728 13.9729L9.21353 13.972L9.29728 13.9333L9.30145 13.93L9.30311 13.9254L9.3102 13.7462L9.30895 13.7412L9.30478 13.737L9.22811 13.6987Z" fill="#F9F4EC"/>
<path fill-rule="evenodd" clip-rule="evenodd" d="M13.1458 6.1832C13.263 6.3004 13.3288 6.45935 13.3288 6.62507C13.3288 6.7908 13.263 6.94974 13.1458 7.06695L8.46122 11.7515C8.39931 11.8135 8.32581 11.8626 8.24492 11.8961C8.16403 11.9296 8.07732 11.9468 7.98976 11.9468C7.9022 11.9468 7.8155 11.9296 7.73461 11.8961C7.65371 11.8626 7.58021 11.8135 7.51831 11.7515L5.19081 9.42445C5.13111 9.3668 5.0835 9.29783 5.05074 9.22158C5.01799 9.14533 5.00074 9.06331 5.00002 8.98033C4.9993 8.89734 5.01512 8.81504 5.04654 8.73823C5.07797 8.66142 5.12438 8.59164 5.18306 8.53295C5.24174 8.47427 5.31152 8.42786 5.38833 8.39644C5.46514 8.36501 5.54744 8.3492 5.63043 8.34992C5.71342 8.35064 5.79543 8.36788 5.87168 8.40064C5.94794 8.43339 6.0169 8.48101 6.07456 8.5407L7.98956 10.4557L12.2616 6.1832C12.3197 6.12512 12.3886 6.07905 12.4645 6.04761C12.5403 6.01618 12.6216 6 12.7037 6C12.7858 6 12.8671 6.01618 12.943 6.04761C13.0188 6.07905 13.0878 6.12512 13.1458 6.1832Z" fill="#F9F4EC"/>
</svg>
