<svg width="16" height="16" viewBox="0 0 16 16" fill="none" xmlns="http://www.w3.org/2000/svg">
<g clip-path="url(#clip0_1731_37602)">
<path d="M5 6.125C5 5.32935 5.31607 4.56629 5.87868 4.00368C6.44129 3.44107 7.20435 3.125 8 3.125C8.79565 3.125 9.55871 3.44107 10.1213 4.00368C10.6839 4.56629 11 5.32935 11 6.125C11 6.92065 10.6839 7.68371 10.1213 8.24632C9.55871 8.80893 8.79565 9.125 8 9.125C7.20435 9.125 6.44129 8.80893 5.87868 8.24632C5.31607 7.68371 5 6.92065 5 6.125ZM11.1828 3.5C10.4258 2.58359 9.28203 2 8 2C6.71797 2 5.57422 2.58359 4.81719 3.5H3.5C2.67266 3.5 2 4.17266 2 5V12.5C2 13.3273 2.67266 14 3.5 14H12.5C13.3273 14 14 13.3273 14 12.5V5C14 4.17266 13.3273 3.5 12.5 3.5H11.1828ZM8.9375 7.25C8.9375 7.00156 8.84141 6.77656 8.68203 6.60781L9.46953 4.77266C9.55156 4.58281 9.4625 4.3625 9.27266 4.28047C9.08281 4.19844 8.8625 4.2875 8.78047 4.47734L7.99297 6.3125C7.47734 6.31484 7.0625 6.73438 7.0625 7.25C7.0625 7.76797 7.48203 8.1875 8 8.1875C8.51797 8.1875 8.9375 7.76797 8.9375 7.25Z" fill="#1B3C28"/>
</g>
<defs>
<clipPath id="clip0_1731_37602">
<rect width="12" height="12" fill="white" transform="translate(2 2)"/>
</clipPath>
</defs>
</svg>
