<svg width="24" height="24" viewBox="0 0 24 24" fill="none" xmlns="http://www.w3.org/2000/svg">
<path d="M21.9948 11.503C21.9948 12.1725 21.4738 12.6969 20.8834 12.6969H19.772L19.7963 18.6556C19.7963 18.756 19.7893 18.8565 19.7789 18.9569V19.5594C19.7789 20.3815 19.1572 21.0473 18.3897 21.0473H17.834C17.7958 21.0473 17.7575 21.0473 17.7193 21.0435C17.6707 21.0473 17.6221 21.0473 17.5735 21.0473L16.4447 21.0435H15.6112C14.8436 21.0435 14.2219 20.3777 14.2219 19.5557V16.2826C14.2219 15.6242 13.7253 15.0923 13.1105 15.0923H10.8877C10.273 15.0923 9.77632 15.6242 9.77632 16.2826V19.5557C9.77632 20.3777 9.15463 21.0435 8.38707 21.0435H6.44559C6.3935 21.0435 6.3414 21.0398 6.2893 21.0361C6.24763 21.0398 6.20595 21.0435 6.16427 21.0435H5.60857C4.84101 21.0435 4.21932 20.3777 4.21932 19.5557V15.3899C4.21932 15.3564 4.21932 15.3192 4.2228 15.2857V12.6932H3.1114C2.48624 12.6932 2 12.1725 2 11.4993C2 11.1645 2.10419 10.8669 2.34731 10.6066L11.2489 2.29719C11.492 2.03683 11.7699 1.99963 12.013 1.99963C12.2561 1.99963 12.534 2.07402 12.7424 2.26L21.6127 10.6103C21.8906 10.8707 22.0295 11.1682 21.9948 11.503Z" fill="#1B3C28"/>
</svg>
