<svg width="24" height="24" viewBox="0 0 24 24" fill="none" xmlns="http://www.w3.org/2000/svg">
<path d="M0.585083 16.0567C0.21044 16.4317 0 16.9401 0 17.4702C0 18.0003 0.21044 18.5087 0.585083 18.8838L5.11766 23.4163C5.49268 23.791 6.00109 24.0014 6.53119 24.0014C7.06128 24.0014 7.56969 23.791 7.94471 23.4163L11.6998 19.6613L4.34015 12.3016L0.585083 16.0567ZM24 6.55654C24.0008 6.29291 23.9492 6.03175 23.8484 5.78818C23.7475 5.5446 23.5994 5.32345 23.4125 5.13751L18.8624 0.587434C18.486 0.211294 17.9757 0 17.4436 0C16.9115 0 16.4012 0.211294 16.0249 0.587434L12.3998 4.2155L19.7859 11.6016L23.4125 7.97506C23.5994 7.78922 23.7475 7.56815 23.8484 7.32466C23.9492 7.08117 24.0007 6.82009 24 6.55654ZM12.8528 18.5112L18.6529 12.7111L11.2883 5.35152L5.48817 11.1516L12.8528 18.5112ZM13.8343 11.4361C13.9462 11.3242 14.0887 11.2479 14.2439 11.217C14.3991 11.1861 14.56 11.2019 14.7062 11.2625C14.8524 11.323 14.9774 11.4255 15.0653 11.5571C15.1533 11.6887 15.2002 11.8434 15.2002 12.0016C15.2002 12.1599 15.1533 12.3146 15.0653 12.4462C14.9774 12.5777 14.8524 12.6803 14.7062 12.7408C14.56 12.8013 14.3991 12.8171 14.2439 12.7862C14.0887 12.7553 13.9462 12.6791 13.8343 12.5671C13.6844 12.4171 13.6002 12.2137 13.6002 12.0016C13.6002 11.7895 13.6844 11.5861 13.8343 11.4361ZM11.4343 9.03608C11.5461 8.92414 11.6887 8.8479 11.8439 8.81699C11.9991 8.78608 12.16 8.80189 12.3062 8.86242C12.4524 8.92296 12.5774 9.0255 12.6653 9.15707C12.7532 9.28865 12.8002 9.44334 12.8002 9.60159C12.8002 9.75984 12.7532 9.91454 12.6653 10.0461C12.5774 10.1777 12.4524 10.2802 12.3062 10.3408C12.16 10.4013 11.9991 10.4171 11.8439 10.3862C11.6887 10.3553 11.5461 10.279 11.4343 10.1671C11.2844 10.0171 11.2001 9.81368 11.2001 9.60159C11.2001 9.38951 11.2844 9.1861 11.4343 9.03608ZM11.4343 13.8362C11.5461 13.7242 11.6887 13.648 11.8439 13.6171C11.9991 13.5862 12.16 13.602 12.3062 13.6625C12.4524 13.723 12.5774 13.8256 12.6653 13.9572C12.7532 14.0887 12.8002 14.2434 12.8002 14.4017C12.8002 14.5599 12.7532 14.7146 12.6653 14.8462C12.5774 14.9778 12.4524 15.0803 12.3062 15.1408C12.16 15.2014 11.9991 15.2172 11.8439 15.1863C11.6887 15.1554 11.5461 15.0791 11.4343 14.9672C11.2844 14.8172 11.2001 14.6138 11.2001 14.4017C11.2001 14.1896 11.2844 13.9862 11.4343 13.8362ZM10.1653 11.4361C10.2772 11.548 10.3534 11.6905 10.3843 11.8457C10.4153 12.0009 10.3994 12.1618 10.3389 12.308C10.2784 12.4542 10.1758 12.5792 10.0443 12.6672C9.91269 12.7551 9.75799 12.802 9.59974 12.802C9.44149 12.802 9.2868 12.7551 9.15522 12.6672C9.02365 12.5792 8.92111 12.4542 8.86057 12.308C8.80004 12.1618 8.78423 12.0009 8.81514 11.8457C8.84605 11.6905 8.92229 11.548 9.03423 11.4361C9.18425 11.2862 9.38765 11.202 9.59974 11.202C9.81183 11.202 10.0152 11.2862 10.1653 11.4361Z" fill="#F9F4EC"/>
</svg>
